<?xml version="1.0" encoding="utf-8"?>
<!-- Generator: Adobe Illustrator 19.2.0, SVG Export Plug-In . SVG Version: 6.00 Build 0)  -->
<svg version="1.1" id="Layer_1" xmlns="http://www.w3.org/2000/svg" xmlns:xlink="http://www.w3.org/1999/xlink" x="0px" y="0px"
	 viewBox="0 0 40 40" style="enable-background:new 0 0 40 40;" xml:space="preserve">
<style type="text/css">
	.st0{fill:#53BAB6;}
	.st1{fill:#F4F4F4;}
</style>
<ellipse transform="matrix(6.191442e-002 -0.9981 0.9981 6.191442e-002 -1.1999 38.7233)" class="st0" cx="20" cy="20" rx="20" ry="20"/>
<g>
	<path class="st1" d="M6.4,21.1v-2.1c0-3.8,2-6.6,6.4-6.6c3.7,0,6,2.5,6.2,5.5h-2.7c-0.2-1.7-1.2-3.1-3.4-3.1c-2.5,0-3.5,1.7-3.5,4
		v2.4c0,2.4,1.1,4,3.5,4c2.2,0,3.2-1.5,3.4-3.1H19c-0.1,3-2.4,5.5-6.2,5.5C8.4,27.7,6.4,24.8,6.4,21.1z"/>
	<path class="st1" d="M28.7,27.4h-3.3l-4.9-14.7h3l3.5,11.5l3.5-11.5h3L28.7,27.4z"/>
</g>
</svg>
